<?xml version="1.0" encoding="UTF-8"?>
<svg id="b" data-name="Layer 2" xmlns="http://www.w3.org/2000/svg" viewBox="0 0 772.02 97.2">
  <g id="c" data-name="Layer 1">
    <g>
      <g>
        <path d="m59.08,33.51c-2.47-3.28-5.58-5.91-9.32-7.89-4.29-2.27-9.17-3.41-14.62-3.41-6.67,0-12.65,1.67-17.95,5-5.3,3.33-9.49,7.83-12.57,13.48C1.54,46.35,0,52.71,0,59.78s1.54,13.43,4.62,19.09c3.08,5.66,7.29,10.13,12.65,13.41,5.35,3.28,11.31,4.92,17.88,4.92,5.55,0,10.48-1.14,14.77-3.41,3.69-1.95,6.74-4.57,9.16-7.83v9.72h13.79V23.73h-13.79v9.79Zm-5.3,43.92c-4.14,4.6-9.6,6.89-16.36,6.89-4.54,0-8.59-1.06-12.12-3.18-3.54-2.12-6.29-5.02-8.26-8.71-1.97-3.69-2.95-7.95-2.95-12.8s.98-8.96,2.95-12.65c1.97-3.69,4.7-6.59,8.18-8.71,3.48-2.12,7.5-3.18,12.04-3.18s8.53,1.04,11.97,3.11c3.43,2.07,6.08,4.95,7.95,8.63,1.87,3.69,2.8,8,2.8,12.95,0,7.17-2.07,13.05-6.21,17.65Z" fill="#fff"/>
        <path d="m127.31,64.93c0,5.96-1.52,10.63-4.54,14.01-3.03,3.39-7.22,5.08-12.57,5.08-3.54,0-6.62-.76-9.24-2.27-2.63-1.51-4.62-3.71-5.98-6.59-1.36-2.88-2.05-6.29-2.05-10.23V23.73h-13.63v41.81c0,6.26,1.31,11.77,3.94,16.51,2.62,4.75,6.29,8.46,10.98,11.13,4.7,2.68,10.02,4.01,15.98,4.01s11.39-1.34,15.98-4.01c4.59-2.68,8.2-6.39,10.83-11.13,2.62-4.75,3.94-10.25,3.94-16.51V23.73h-13.63v41.2Z" fill="#fff"/>
        <path d="m167.43,36.14v43.34c0,1.42,1.15,2.57,2.57,2.57h11.06l-6.42,13.63h-15.7c-2.84,0-5.14-2.3-5.14-5.14v-54.4h-6.42v-12.41h6.42V6.42h13.63v17.31h19.27l-6.42,12.41h-12.85Z" fill="#fff"/>
        <path d="m236.9,27.13c-5.71-3.28-12.04-4.92-19.01-4.92s-13.43,1.67-19.09,5c-5.66,3.33-10.15,7.8-13.48,13.41-3.33,5.6-5,11.89-5,18.86s1.67,13.46,5,19.16c3.33,5.71,7.83,10.23,13.48,13.56,5.65,3.33,12.02,5,19.09,5s13.3-1.67,19.01-5c5.71-3.33,10.23-7.85,13.56-13.56,3.33-5.71,5-12.09,5-19.16s-1.67-13.28-5-18.94c-3.33-5.65-7.85-10.12-13.56-13.41Zm1.44,44.99c-2.02,3.69-4.8,6.59-8.33,8.71-3.54,2.12-7.57,3.18-12.12,3.18s-8.59-1.06-12.12-3.18c-3.54-2.12-6.31-5.02-8.33-8.71-2.02-3.69-3.03-7.9-3.03-12.65s1.01-8.79,3.03-12.42c2.02-3.63,4.8-6.49,8.33-8.56,3.53-2.07,7.57-3.11,12.12-3.11s8.56,1.04,12.04,3.11c3.48,2.07,6.26,4.92,8.33,8.56,2.07,3.64,3.11,7.78,3.11,12.42s-1.01,8.96-3.03,12.65Z" fill="#fff"/>
        <path d="m359.29,25.54c-4.14-2.22-8.84-3.33-14.09-3.33s-9.7,1.14-13.94,3.41c-4.24,2.27-7.7,5.4-10.38,9.39-.05.07-.09.15-.14.23-.06-.1-.1-.2-.16-.3-2.38-4.04-5.61-7.17-9.7-9.39-4.09-2.22-8.66-3.33-13.71-3.33s-9.8,1.14-13.94,3.41c-3.06,1.68-5.63,3.84-7.73,6.48v-8.38h-13.63v71.96h13.63v-43.63c0-3.53.81-6.56,2.42-9.09,1.61-2.52,3.74-4.49,6.36-5.91,2.62-1.41,5.6-2.12,8.94-2.12,4.95,0,9.06,1.54,12.35,4.62,3.28,3.08,4.92,7.3,4.92,12.65v43.48h13.63v-43.63c0-3.53.81-6.56,2.42-9.09,1.61-2.52,3.76-4.49,6.44-5.91,2.68-1.41,5.68-2.12,9.01-2.12,4.85,0,8.91,1.54,12.19,4.62,3.28,3.08,4.92,7.3,4.92,12.65v43.48h13.79v-46.2c0-5.65-1.24-10.5-3.71-14.54-2.48-4.04-5.78-7.17-9.92-9.39Z" fill="#fff"/>
        <path d="m438.43,33.51c-2.47-3.28-5.58-5.91-9.32-7.89-4.29-2.27-9.17-3.41-14.62-3.41-6.67,0-12.65,1.67-17.95,5-5.3,3.33-9.49,7.83-12.57,13.48-3.08,5.66-4.62,12.02-4.62,19.09s1.54,13.43,4.62,19.09c3.08,5.66,7.29,10.13,12.65,13.41,5.35,3.28,11.31,4.92,17.88,4.92,5.55,0,10.48-1.14,14.77-3.41,3.69-1.95,6.74-4.57,9.16-7.83v9.72h13.79V23.73h-13.79v9.79Zm-5.3,43.92c-4.14,4.6-9.6,6.89-16.36,6.89-4.54,0-8.59-1.06-12.12-3.18-3.54-2.12-6.29-5.02-8.26-8.71-1.97-3.69-2.95-7.95-2.95-12.8s.98-8.96,2.95-12.65c1.97-3.69,4.7-6.59,8.18-8.71,3.48-2.12,7.5-3.18,12.04-3.18s8.53,1.04,11.97,3.11c3.43,2.07,6.08,4.95,7.95,8.63,1.87,3.69,2.8,8,2.8,12.95,0,7.17-2.07,13.05-6.21,17.65Z" fill="#fff"/>
        <path d="m511.21,0c-2.53,0-4.6.83-6.21,2.5-1.62,1.67-2.42,3.71-2.42,6.14s.81,4.62,2.42,6.29c1.61,1.67,3.69,2.5,6.21,2.5s4.59-.83,6.21-2.5c1.61-1.67,2.42-3.76,2.42-6.29s-.81-4.47-2.42-6.14c-1.62-1.67-3.69-2.5-6.21-2.5Z" fill="#fff"/>
        <rect x="504.39" y="23.73" width="13.63" height="71.96" fill="#fff"/>
        <path d="m572.54,81.97c-3.18,1.36-6.69,2.05-10.53,2.05-4.54,0-8.59-1.06-12.12-3.18-3.54-2.12-6.31-5-8.33-8.63-2.02-3.64-3.03-7.83-3.03-12.57s1.01-8.94,3.03-12.57c2.02-3.63,4.8-6.49,8.33-8.56,3.53-2.07,7.57-3.11,12.12-3.11,3.84,0,7.35.68,10.53,2.05,3.18,1.36,5.88,3.36,8.1,5.98l9.09-9.09c-3.44-3.94-7.53-6.94-12.27-9.01-4.75-2.07-9.9-3.11-15.45-3.11-7.07,0-13.46,1.64-19.16,4.92-5.71,3.28-10.2,7.75-13.48,13.41-3.28,5.66-4.92,12.02-4.92,19.09s1.64,13.31,4.92,19.01c3.28,5.71,7.78,10.23,13.48,13.56,5.71,3.33,12.09,5,19.16,5,5.55,0,10.73-1.06,15.53-3.18,4.8-2.12,8.86-5.1,12.2-8.94l-8.94-9.09c-2.32,2.63-5.07,4.62-8.26,5.98Z" fill="#fff"/>
        <path d="m478.69,36.14v43.34c0,1.42,1.15,2.57,2.57,2.57h11.06l-6.42,13.63h-15.7c-2.84,0-5.14-2.3-5.14-5.14v-54.4h-6.42v-12.41h6.42V6.42h13.63v17.31h19.27l-6.42,12.41h-12.85Z" fill="#fff"/>
      </g>
      <path d="m772.02,33.61v52.18c0,6.3-5.11,11.4-11.4,11.4h-154.26c-8.47,0-13.98-8.91-10.21-16.49l25.99-52.18c1.93-3.87,5.88-6.32,10.21-6.32h128.27c6.3,0,11.4,5.11,11.4,11.4Z" fill="#fff"/>
      <g>
        <path d="m619.88,84.44c-1.87,0-3.42-.65-4.65-1.95-1.23-1.3-1.85-2.85-1.85-4.65s.62-3.41,1.85-4.65c1.23-1.23,2.78-1.85,4.65-1.85s3.41.62,4.65,1.85c1.23,1.23,1.85,2.78,1.85,4.65s-.62,3.35-1.85,4.65c-1.23,1.3-2.78,1.95-4.65,1.95Z" fill="#08012f"/>
        <path d="m658.76,84.44c-4.66,0-8.88-1.1-12.64-3.3-3.76-2.2-6.73-5.18-8.89-8.94-2.17-3.76-3.25-7.95-3.25-12.54s1.08-8.86,3.25-12.59c2.16-3.73,5.13-6.68,8.89-8.84,3.76-2.16,7.98-3.25,12.64-3.25,3.66,0,7.06.68,10.19,2.05,3.13,1.37,5.83,3.35,8.1,5.95l-6,6c-1.47-1.73-3.25-3.05-5.35-3.95-2.1-.9-4.41-1.35-6.95-1.35-3,0-5.66.68-8,2.05-2.33,1.37-4.17,3.25-5.5,5.65-1.33,2.4-2,5.16-2,8.29s.67,5.9,2,8.3c1.33,2.4,3.16,4.3,5.5,5.7,2.33,1.4,5,2.1,8,2.1,2.53,0,4.85-.45,6.95-1.35,2.1-.9,3.91-2.21,5.45-3.95l5.9,6c-2.2,2.53-4.88,4.5-8.05,5.9-3.17,1.4-6.58,2.1-10.24,2.1Z" fill="#08012f"/>
        <path d="m699.04,84.44c-2.67,0-5.18-.35-7.55-1.05-2.37-.7-4.55-1.7-6.55-3-2-1.3-3.73-2.85-5.2-4.65l5.8-5.8c1.73,2.13,3.73,3.71,6,4.75,2.26,1.03,4.8,1.55,7.6,1.55s4.96-.48,6.5-1.45c1.53-.97,2.3-2.31,2.3-4.05s-.62-3.08-1.85-4.05c-1.23-.96-2.82-1.76-4.75-2.4-1.93-.63-3.98-1.26-6.15-1.9-2.17-.63-4.21-1.45-6.15-2.45-1.93-1-3.51-2.36-4.75-4.1-1.23-1.73-1.85-4.03-1.85-6.9s.7-5.35,2.1-7.45c1.4-2.1,3.35-3.71,5.85-4.85,2.5-1.13,5.51-1.7,9.04-1.7,3.73,0,7.05.65,9.94,1.95,2.9,1.3,5.28,3.25,7.15,5.85l-5.8,5.8c-1.33-1.73-2.98-3.06-4.95-4-1.97-.93-4.18-1.4-6.65-1.4-2.6,0-4.58.45-5.95,1.35-1.37.9-2.05,2.15-2.05,3.75s.6,2.83,1.8,3.7c1.2.87,2.78,1.6,4.75,2.2,1.96.6,4.01,1.22,6.15,1.85,2.13.63,4.16,1.48,6.1,2.55,1.93,1.07,3.51,2.5,4.75,4.3,1.23,1.8,1.85,4.16,1.85,7.1,0,4.46-1.58,8-4.75,10.59-3.17,2.6-7.41,3.9-12.74,3.9Z" fill="#08012f"/>
        <path d="m739.71,84.44c-2.67,0-5.18-.35-7.55-1.05-2.37-.7-4.55-1.7-6.55-3-2-1.3-3.73-2.85-5.2-4.65l5.8-5.8c1.73,2.13,3.73,3.71,6,4.75,2.26,1.03,4.8,1.55,7.6,1.55s4.96-.48,6.5-1.45c1.53-.97,2.3-2.31,2.3-4.05s-.62-3.08-1.85-4.05c-1.23-.96-2.82-1.76-4.75-2.4-1.93-.63-3.98-1.26-6.15-1.9-2.17-.63-4.21-1.45-6.15-2.45-1.93-1-3.51-2.36-4.75-4.1-1.23-1.73-1.85-4.03-1.85-6.9s.7-5.35,2.1-7.45c1.4-2.1,3.35-3.71,5.85-4.85,2.5-1.13,5.51-1.7,9.04-1.7,3.73,0,7.05.65,9.94,1.95,2.9,1.3,5.28,3.25,7.15,5.85l-5.8,5.8c-1.33-1.73-2.98-3.06-4.95-4-1.97-.93-4.18-1.4-6.65-1.4-2.6,0-4.58.45-5.95,1.35-1.37.9-2.05,2.15-2.05,3.75s.6,2.83,1.8,3.7c1.2.87,2.78,1.6,4.75,2.2,1.96.6,4.01,1.22,6.15,1.85,2.13.63,4.16,1.48,6.1,2.55,1.93,1.07,3.51,2.5,4.75,4.3,1.23,1.8,1.85,4.16,1.85,7.1,0,4.46-1.58,8-4.75,10.59-3.17,2.6-7.41,3.9-12.74,3.9Z" fill="#08012f"/>
      </g>
    </g>
  </g>
</svg>