<svg width="50" height="50" viewBox="0 0 50 50" fill="none" xmlns="http://www.w3.org/2000/svg">
<path d="M41.1182 20.8333H49.6463C47.656 9.02561 37.3649 0 25 0C18.1068 0 11.8644 2.81087 7.33995 7.33995L0 0V20.8333H20.8333L13.2365 13.2365C16.247 10.2119 20.4026 8.33333 25 8.33333C32.7493 8.33333 39.2605 13.657 41.1182 20.8333Z" fill="black"/>
<path d="M36.7635 36.7636C33.753 39.7882 29.5975 41.6667 25 41.6667C17.2507 41.6667 10.7392 36.3431 8.88186 29.1667H0.35376C2.34405 40.9745 12.6351 50.0001 25 50.0001C31.8932 50.0001 38.1356 47.1892 42.6601 42.6601L50 50.0001V29.1667H29.1667L36.7635 36.7636Z" fill="black"/>
</svg>
