<svg width="12" height="12" viewBox="0 0 12 12" fill="none" xmlns="http://www.w3.org/2000/svg">
<path d="M11.25 6C11.25 8.90625 8.88281 11.25 6 11.25C4.85156 11.25 3.75 10.8984 2.83594 10.2188C2.50781 9.96094 2.4375 9.49219 2.69531 9.16406C2.95312 8.83594 3.42188 8.76562 3.75 9C4.40625 9.49219 5.17969 9.75 6 9.75C8.0625 9.75 9.75 8.08594 9.75 6C9.75 3.9375 8.0625 2.27344 6 2.27344C4.80469 2.27344 3.70312 2.83594 3 3.75H4.5C4.89844 3.75 5.25 4.10156 5.25 4.5C5.25 4.92188 4.89844 5.25 4.5 5.25H1.125C0.703125 5.25 0.375 4.92188 0.375 4.5V1.125C0.375 0.726562 0.703125 0.375 1.125 0.375C1.52344 0.375 1.875 0.726562 1.875 1.125V2.78906C2.85938 1.52344 4.35938 0.773438 6 0.773438C8.88281 0.773438 11.25 3.11719 11.25 6Z" fill="#676767"/>
</svg>
